<svg width="577" height="475" viewBox="0 0 577 475" fill="none" xmlns="http://www.w3.org/2000/svg">
<rect x="249" y="10" width="318" height="364" rx="40" stroke="#8DE137" stroke-width="20"/>
<rect x="25" y="101" width="318" height="364" rx="40" stroke="#31D0C1" stroke-width="20"/>
<g clip-path="url(#clip0_109_2)">
<path d="M51.7873 349.938L51.0106 349.619C50.8399 349.548 33.8536 342.403 25.8965 326.202C17.939 310 21.8354 290.492 21.8757 290.298L22.0591 289.409L22.8354 289.729C23.006 289.8 39.992 296.945 47.9495 313.146C55.907 329.348 52.0106 348.855 51.9703 349.05L51.7873 349.938ZM27.1706 325.448C33.8981 339.146 47.3213 346.168 50.7223 347.771C51.3689 343.769 53.3968 327.585 46.6753 313.9C39.9546 300.217 26.5261 293.184 23.1237 291.577C22.4767 295.581 20.4495 311.763 27.1706 325.448Z" fill="#3F3D56"/>
<path d="M31.9776 320.519C46.2776 329.964 51.785 348.726 51.785 348.726C51.785 348.726 34.1075 352.173 19.8074 342.727C5.50739 333.282 0 314.52 0 314.52C0 314.52 17.6775 311.073 31.9776 320.519Z" fill="#D0CDE1"/>
<path d="M489.627 74.6084H330.165V71H257.859V74.6084H97.7401C96.3236 74.6084 94.921 74.9147 93.6124 75.5098C92.3037 76.1049 91.1146 76.9772 90.113 78.0769C89.1114 79.1766 88.3169 80.482 87.7748 81.9188C87.2327 83.3556 86.9537 84.8955 86.9537 86.4507V326.177C86.9537 329.318 88.0902 332.33 90.113 334.551C92.1358 336.772 94.8794 338.02 97.7401 338.02H489.627C491.043 338.02 492.446 337.713 493.755 337.118C495.063 336.523 496.252 335.651 497.254 334.551C498.256 333.452 499.05 332.146 499.592 330.709C500.134 329.272 500.413 327.733 500.413 326.177V86.4507C500.413 84.8955 500.134 83.3556 499.592 81.9188C499.05 80.482 498.256 79.1765 497.254 78.0769C496.252 76.9772 495.063 76.1049 493.755 75.5098C492.446 74.9147 491.043 74.6084 489.627 74.6084V74.6084Z" fill="#3F3D56"/>
<path d="M485.952 95.537H101.415V333.69H485.952V95.537Z" fill="#31D0C1"/>
<path d="M293.355 89.0419C295.533 89.0419 297.299 87.1032 297.299 84.7118C297.299 82.3204 295.533 80.3818 293.355 80.3818C291.177 80.3818 289.411 82.3204 289.411 84.7118C289.411 87.1032 291.177 89.0419 293.355 89.0419Z" fill="#31D0C1"/>
<path d="M463.877 125.847H445.649V105.835H463.877V125.847ZM446.441 124.977H463.084V106.705H446.441V124.977Z" fill="#3F3D56"/>
<path d="M511.21 329.36H473.682V326.391C473.682 326.314 473.668 326.237 473.641 326.166C473.614 326.094 473.575 326.03 473.525 325.975C473.475 325.92 473.416 325.877 473.351 325.847C473.286 325.818 473.216 325.802 473.146 325.802H460.279C460.209 325.802 460.139 325.818 460.074 325.847C460.009 325.877 459.95 325.92 459.9 325.975C459.85 326.03 459.811 326.094 459.784 326.166C459.757 326.237 459.743 326.314 459.743 326.391V329.36H451.701V326.391C451.701 326.314 451.687 326.237 451.66 326.166C451.633 326.094 451.594 326.03 451.544 325.975C451.494 325.92 451.435 325.877 451.37 325.847C451.305 325.818 451.235 325.802 451.165 325.802H438.298C438.228 325.802 438.158 325.818 438.093 325.847C438.028 325.877 437.969 325.92 437.919 325.975C437.869 326.03 437.83 326.094 437.803 326.166C437.776 326.237 437.762 326.314 437.762 326.391V329.36H429.72V326.391C429.72 326.314 429.706 326.237 429.679 326.166C429.652 326.094 429.613 326.03 429.563 325.975C429.513 325.92 429.454 325.877 429.389 325.847C429.324 325.818 429.254 325.802 429.184 325.802H416.317C416.247 325.802 416.177 325.818 416.112 325.847C416.047 325.877 415.988 325.92 415.938 325.975C415.888 326.03 415.849 326.094 415.822 326.166C415.795 326.237 415.781 326.314 415.781 326.391V329.36H407.739V326.391C407.739 326.314 407.725 326.237 407.698 326.166C407.672 326.094 407.632 326.03 407.582 325.975C407.532 325.92 407.473 325.877 407.408 325.847C407.343 325.818 407.274 325.802 407.203 325.802H394.336C394.266 325.802 394.196 325.818 394.131 325.847C394.066 325.877 394.007 325.92 393.957 325.975C393.907 326.03 393.868 326.094 393.841 326.166C393.814 326.237 393.8 326.314 393.8 326.391V329.36H385.758V326.391C385.758 326.314 385.745 326.237 385.718 326.166C385.691 326.094 385.651 326.03 385.601 325.975C385.552 325.92 385.492 325.877 385.427 325.847C385.362 325.818 385.293 325.802 385.222 325.802H372.355C372.285 325.802 372.215 325.818 372.15 325.847C372.085 325.877 372.026 325.92 371.976 325.975C371.927 326.03 371.887 326.094 371.86 326.166C371.833 326.237 371.819 326.314 371.819 326.391V329.36H363.778V326.391C363.778 326.314 363.764 326.237 363.737 326.166C363.71 326.094 363.67 326.03 363.62 325.975C363.571 325.92 363.512 325.877 363.447 325.847C363.382 325.818 363.312 325.802 363.241 325.802H350.375C350.304 325.802 350.234 325.818 350.169 325.847C350.104 325.877 350.045 325.92 349.995 325.975C349.946 326.03 349.906 326.094 349.879 326.166C349.852 326.237 349.838 326.314 349.838 326.391V329.36H341.797V326.391C341.797 326.314 341.783 326.237 341.756 326.166C341.729 326.094 341.689 326.03 341.64 325.975C341.59 325.92 341.531 325.877 341.466 325.847C341.401 325.818 341.331 325.802 341.261 325.802H240.47C240.4 325.802 240.33 325.818 240.265 325.847C240.2 325.877 240.141 325.92 240.091 325.975C240.041 326.03 240.002 326.094 239.975 326.166C239.948 326.237 239.934 326.314 239.934 326.391V329.36H231.892V326.391C231.892 326.314 231.878 326.237 231.851 326.166C231.825 326.094 231.785 326.03 231.735 325.975C231.685 325.92 231.626 325.877 231.561 325.847C231.496 325.818 231.427 325.802 231.356 325.802H218.489C218.419 325.802 218.349 325.818 218.284 325.847C218.219 325.877 218.16 325.92 218.11 325.975C218.06 326.03 218.021 326.094 217.994 326.166C217.967 326.237 217.953 326.314 217.953 326.391V329.36H209.911V326.391C209.911 326.314 209.898 326.237 209.871 326.166C209.844 326.094 209.804 326.03 209.754 325.975C209.705 325.92 209.645 325.877 209.58 325.847C209.515 325.818 209.446 325.802 209.375 325.802H196.508C196.438 325.802 196.368 325.818 196.303 325.847C196.238 325.877 196.179 325.92 196.129 325.975C196.08 326.03 196.04 326.094 196.013 326.166C195.986 326.237 195.972 326.314 195.972 326.391V329.36H187.931V326.391C187.931 326.314 187.917 326.237 187.89 326.166C187.863 326.094 187.823 326.03 187.774 325.975C187.724 325.92 187.665 325.877 187.6 325.847C187.535 325.818 187.465 325.802 187.394 325.802H174.528C174.457 325.802 174.387 325.818 174.322 325.847C174.257 325.877 174.198 325.92 174.148 325.975C174.099 326.03 174.059 326.094 174.032 326.166C174.005 326.237 173.991 326.314 173.991 326.391V329.36H165.95V326.391C165.95 326.314 165.936 326.237 165.909 326.166C165.882 326.094 165.842 326.03 165.793 325.975C165.743 325.92 165.684 325.877 165.619 325.847C165.554 325.818 165.484 325.802 165.414 325.802H152.547C152.476 325.802 152.407 325.818 152.342 325.847C152.276 325.877 152.217 325.92 152.168 325.975C152.118 326.03 152.078 326.094 152.051 326.166C152.024 326.237 152.011 326.314 152.011 326.391V329.36H143.969V326.391C143.969 326.314 143.955 326.237 143.928 326.166C143.901 326.094 143.862 326.03 143.812 325.975C143.762 325.92 143.703 325.877 143.638 325.847C143.573 325.818 143.503 325.802 143.433 325.802H130.566C130.495 325.802 130.426 325.818 130.361 325.847C130.296 325.877 130.236 325.92 130.187 325.975C130.137 326.03 130.097 326.094 130.071 326.166C130.044 326.237 130.03 326.314 130.03 326.391V329.36H121.988V326.391C121.988 326.314 121.974 326.237 121.947 326.166C121.92 326.094 121.881 326.03 121.831 325.975C121.781 325.92 121.722 325.877 121.657 325.847C121.592 325.818 121.522 325.802 121.452 325.802H108.585C108.515 325.802 108.445 325.818 108.38 325.847C108.315 325.877 108.256 325.92 108.206 325.975C108.156 326.03 108.117 326.094 108.09 326.166C108.063 326.237 108.049 326.314 108.049 326.391V329.36H83.3874C79.9749 329.36 76.7021 330.848 74.2891 333.497C71.8761 336.146 70.5205 339.739 70.5205 343.486V349.874C70.5205 353.62 71.8761 357.213 74.2891 359.862C76.7021 362.512 79.9749 364 83.3874 364H511.21C514.623 364 517.895 362.512 520.308 359.862C522.721 357.213 524.077 353.62 524.077 349.874V343.486C524.077 339.739 522.721 336.146 520.308 333.497C517.895 330.848 514.623 329.36 511.21 329.36V329.36Z" fill="#3F3D56"/>
<path d="M577 349.508H17.5976V351.382H577V349.508Z" fill="#3F3D56"/>
<path d="M462.181 228.24H338.373V150.855H462.181V228.24ZM339.598 226.894H460.955V152.201H339.598V226.894Z" fill="#3F3D56"/>
<path d="M235.403 243.717H125.078V168.351H235.403V243.717ZM126.304 242.371H234.177V169.697H126.304V242.371Z" fill="#3F3D56"/>
<path d="M176.621 214.782L176.515 213.277C176.199 210.152 177.148 206.738 179.783 203.266C182.155 200.199 183.473 197.942 183.473 195.338C183.473 192.386 181.786 190.419 178.466 190.361C176.566 190.353 174.71 190.978 173.142 192.155L171.877 188.509C173.617 187.12 176.621 186.194 179.414 186.194C185.476 186.194 188.217 190.303 188.217 194.701C188.217 198.636 186.214 201.472 183.684 204.77C181.365 207.779 180.521 210.326 180.679 213.277L180.732 214.782L176.621 214.782ZM175.461 222.884C175.433 222.412 175.494 221.938 175.641 221.493C175.788 221.048 176.017 220.642 176.314 220.299C176.611 219.957 176.97 219.685 177.368 219.503C177.765 219.32 178.193 219.23 178.624 219.238C180.469 219.238 181.734 220.742 181.734 222.884C181.751 223.348 181.683 223.811 181.533 224.245C181.383 224.68 181.155 225.077 180.862 225.412C180.569 225.747 180.218 226.014 179.829 226.196C179.439 226.378 179.021 226.472 178.598 226.472C178.174 226.472 177.756 226.378 177.366 226.196C176.977 226.014 176.626 225.747 176.333 225.412C176.04 225.077 175.812 224.68 175.662 224.245C175.512 223.811 175.444 223.348 175.461 222.884V222.884Z" fill="#D0CDE1"/>
<path d="M396.657 197.959L396.552 196.454C396.236 193.329 397.184 189.915 399.82 186.443C402.192 183.376 403.509 181.119 403.509 178.515C403.509 175.564 401.823 173.596 398.502 173.538C396.603 173.53 394.746 174.155 393.178 175.332L391.913 171.686C393.653 170.297 396.657 169.371 399.451 169.371C405.512 169.371 408.253 173.48 408.253 177.878C408.253 181.814 406.25 184.649 403.72 187.947C401.401 190.956 400.558 193.503 400.716 196.454L400.768 197.959L396.657 197.959ZM395.498 206.061C395.469 205.589 395.53 205.115 395.677 204.67C395.824 204.226 396.053 203.819 396.35 203.476C396.648 203.134 397.006 202.863 397.404 202.68C397.801 202.497 398.229 202.407 398.66 202.415C400.505 202.415 401.77 203.919 401.77 206.061C401.787 206.525 401.719 206.988 401.569 207.423C401.42 207.857 401.191 208.254 400.899 208.589C400.606 208.924 400.254 209.191 399.865 209.373C399.476 209.555 399.057 209.649 398.634 209.649C398.211 209.649 397.792 209.555 397.403 209.373C397.014 209.191 396.662 208.924 396.369 208.589C396.076 208.254 395.848 207.857 395.698 207.423C395.548 206.988 395.48 206.525 395.498 206.061V206.061Z" fill="#D0CDE1"/>
<path d="M295.849 304.596C325.06 304.596 348.739 278.598 348.739 246.529C348.739 214.459 325.06 188.461 295.849 188.461C266.639 188.461 242.96 214.459 242.96 246.529C242.96 278.598 266.639 304.596 295.849 304.596Z" fill="#2F2E41"/>
<path d="M275.422 326.046L259.611 322.904L264.739 286.658L280.55 289.8L275.422 326.046Z" fill="#2F2E41"/>
<path d="M312.172 296.085L296.361 292.943L291.233 324.043L307.044 327.186L312.172 296.085Z" fill="#2F2E41"/>
<path d="M317.611 328.88C318.16 325.895 312.729 322.174 305.48 320.567C298.231 318.961 291.91 320.078 291.361 323.062C290.812 326.046 296.244 329.768 303.493 331.375C310.741 332.981 317.062 331.864 317.611 328.88Z" fill="#2F2E41"/>
<path d="M284.68 327.943C285.044 324.924 279.397 321.613 272.066 320.547C264.735 319.481 258.497 321.063 258.132 324.081C257.768 327.1 263.416 330.411 270.747 331.477C278.078 332.543 284.316 330.961 284.68 327.943Z" fill="#2F2E41"/>
<path d="M299.552 252.171C309.535 252.171 317.628 243.285 317.628 232.325C317.628 221.364 309.535 212.479 299.552 212.479C289.569 212.479 281.476 221.364 281.476 232.325C281.476 243.285 289.569 252.171 299.552 252.171Z" fill="white"/>
<path d="M306.982 231.827C310.309 231.827 313.007 228.865 313.007 225.211C313.007 221.558 310.309 218.596 306.982 218.596C303.654 218.596 300.956 221.558 300.956 225.211C300.956 228.865 303.654 231.827 306.982 231.827Z" fill="#3F3D56"/>
<path d="M254.127 183.358C253.331 161.86 270.207 143.652 291.82 142.688C313.432 141.724 331.597 158.37 332.393 179.867C333.188 201.365 318.165 206.249 296.552 207.213C274.94 208.177 254.922 204.855 254.127 183.358Z" fill="white"/>
<path d="M346.541 244.834C360.777 241.251 371.487 234.369 370.462 229.463C369.438 224.556 357.067 223.483 342.831 227.066C328.595 230.648 317.885 237.53 318.909 242.436C319.934 247.343 332.305 248.416 346.541 244.834Z" fill="#2F2E41"/>
<path d="M242.72 263.789C256.956 260.207 267.666 253.325 266.642 248.418C265.617 243.512 253.246 242.438 239.01 246.021C224.774 249.603 214.064 256.485 215.089 261.392C216.113 266.298 228.484 267.372 242.72 263.789Z" fill="#2F2E41"/>
<path d="M281.323 269.412C281.041 271.122 281.069 272.876 281.404 274.574C281.74 276.272 282.377 277.88 283.279 279.308C284.18 280.736 285.329 281.955 286.66 282.895C287.991 283.835 289.478 284.478 291.035 284.788C292.592 285.097 294.189 285.067 295.736 284.699C297.283 284.33 298.748 283.631 300.048 282.641C301.349 281.651 302.459 280.389 303.315 278.928C304.172 277.467 304.758 275.835 305.039 274.126C306.225 266.936 301.162 264.391 294.612 263.09C288.063 261.788 282.509 262.222 281.323 269.412Z" fill="white"/>
<path d="M181.681 79.8301H94.7166V170.651H181.681V79.8301Z" fill="#D0CDE1"/>
<path d="M171.799 90.6799H104.599V147.098H171.799V90.6799Z" fill="white"/>
<path d="M141.085 153.754H104.532V155.867H141.085V153.754Z" fill="#F2F2F2"/>
<path d="M141.085 160.091H104.532V162.203H141.085V160.091Z" fill="#F2F2F2"/>
<path d="M116.556 127.353C120.806 127.353 124.251 123.57 124.251 118.904C124.251 114.238 120.806 110.456 116.556 110.456C112.306 110.456 108.861 114.238 108.861 118.904C108.861 123.57 112.306 127.353 116.556 127.353Z" fill="#3F3D56"/>
<path d="M138.199 127.353C142.449 127.353 145.894 123.57 145.894 118.904C145.894 114.238 142.449 110.456 138.199 110.456C133.949 110.456 130.504 114.238 130.504 118.904C130.504 123.57 133.949 127.353 138.199 127.353Z" fill="#31D0C1"/>
<path d="M159.842 127.353C164.092 127.353 167.537 123.57 167.537 118.904C167.537 114.238 164.092 110.456 159.842 110.456C155.592 110.456 152.146 114.238 152.146 118.904C152.146 123.57 155.592 127.353 159.842 127.353Z" fill="#E6E6E6"/>
<path d="M138.199 89.3347C140.324 89.3347 142.046 87.4434 142.046 85.1104C142.046 82.7775 140.324 80.8862 138.199 80.8862C136.074 80.8862 134.351 82.7775 134.351 85.1104C134.351 87.4434 136.074 89.3347 138.199 89.3347Z" fill="#3F3D56"/>
<path d="M223.045 255.687H136.081V346.508H223.045V255.687Z" fill="#D0CDE1"/>
<path d="M213.163 266.537H145.963V322.955H213.163V266.537Z" fill="white"/>
<path d="M184.309 275.808H160.75V301.673H184.309V275.808Z" fill="#31D0C1"/>
<path d="M169.769 282.276V313.683H198.376V282.276H169.769ZM197.135 312.321H171.01V283.639H197.135V312.321Z" fill="#3F3D56"/>
<path d="M182.449 328.555H145.896V330.667H182.449V328.555Z" fill="#F2F2F2"/>
<path d="M179.563 265.192C181.688 265.192 183.41 263.3 183.41 260.967C183.41 258.634 181.688 256.743 179.563 256.743C177.438 256.743 175.715 258.634 175.715 260.967C175.715 263.3 177.438 265.192 179.563 265.192Z" fill="#3F3D56"/>
<path d="M449.464 228.497H362.5V319.318H449.464V228.497Z" fill="#D0CDE1"/>
<path d="M439.582 239.347H372.382V295.766H439.582V239.347Z" fill="white"/>
<path d="M413.21 283.514H398.754V288.218H413.21V283.514Z" fill="#3F3D56"/>
<path d="M430.688 246.895H381.277V248.91H430.688V246.895Z" fill="#3F3D56"/>
<path d="M430.688 253.278H381.277V255.294H430.688V253.278Z" fill="#3F3D56"/>
<path d="M430.688 259.661H381.277V261.677H430.688V259.661Z" fill="#3F3D56"/>
<path d="M430.688 266.044H381.277V268.06H430.688V266.044Z" fill="#3F3D56"/>
<path d="M430.688 272.428H381.277V274.443H430.688V272.428Z" fill="#3F3D56"/>
<path d="M408.868 301.365H372.316V303.478H408.868V301.365Z" fill="#F2F2F2"/>
<path d="M423.296 306.646H372.316V308.758H423.296V306.646Z" fill="#F2F2F2"/>
<path d="M405.982 238.002C408.107 238.002 409.83 236.11 409.83 233.777C409.83 231.444 408.107 229.553 405.982 229.553C403.857 229.553 402.135 231.444 402.135 233.777C402.135 236.11 403.857 238.002 405.982 238.002Z" fill="#3F3D56"/>
</g>
<defs>
<clipPath id="clip0_109_2">
<rect width="577" height="293" fill="white" transform="translate(0 71)"/>
</clipPath>
</defs>
</svg>
